<?xml version="1.0" standalone="no"?>
<!DOCTYPE svg PUBLIC "-//W3C//DTD SVG 20010904//EN"
 "http://www.w3.org/TR/2001/REC-SVG-20010904/DTD/svg10.dtd">
<svg version="1.0" xmlns="http://www.w3.org/2000/svg"
 width="544.000000pt" height="544.000000pt" viewBox="0 0 544.000000 544.000000"
 preserveAspectRatio="xMidYMid meet">
<metadata>
Created by potrace 1.14, written by Peter Selinger 2001-2017
</metadata>
<g transform="translate(0.000000,544.000000) scale(0.100000,-0.100000)"
fill="#000000" stroke="none">
<path d="M2553 5418 c-14 -28 -33 -89 -32 -102 0 -5 -3 -12 -8 -15 -5 -3 -16
-28 -25 -56 -9 -27 -25 -74 -37 -102 -11 -29 -18 -53 -15 -53 4 0 2 -6 -4 -12
-5 -7 -13 -29 -18 -48 -11 -50 -11 -50 -14 -52 -1 -2 -3 -10 -5 -18 -1 -8 -6
-31 -10 -50 -13 -65 -9 -309 6 -327 2 -4 5 -14 14 -50 4 -18 11 -33 16 -33 5
0 9 -7 9 -15 0 -8 4 -15 9 -15 5 0 14 -12 20 -28 13 -31 47 -57 56 -42 3 5 12
7 20 3 8 -3 15 0 15 6 0 7 6 11 13 10 30 -4 39 2 34 21 -3 11 -1 23 4 26 6 3
6 10 1 17 -9 12 -9 79 2 157 6 46 13 85 16 85 2 0 12 65 13 83 0 6 5 12 10 12
6 0 8 2 5 6 -5 4 -2 22 17 94 2 8 4 15 5 15 1 0 3 9 5 20 2 11 7 36 11 55 8
41 9 99 1 120 -5 12 -27 91 -32 110 -11 50 -59 158 -75 170 -4 3 -9 11 -11 18
-3 9 -9 6 -16 -10z"/>
<path d="M3560 5257 c0 -8 -8 -23 -18 -35 -10 -11 -27 -33 -38 -48 -28 -39
-75 -96 -102 -121 -13 -13 -20 -23 -17 -23 4 0 -8 -15 -27 -33 -18 -18 -56
-60 -85 -93 -29 -32 -64 -72 -79 -89 -25 -29 -72 -120 -80 -157 -2 -10 -6 -28
-10 -40 -10 -44 -14 -64 -18 -105 -2 -23 -7 -46 -10 -52 -4 -6 -3 -11 2 -11 5
0 7 -13 4 -28 -3 -26 0 -30 40 -42 23 -8 54 -20 68 -27 16 -8 26 -9 31 -2 3 6
9 10 13 10 4 -1 33 38 66 86 33 49 71 102 85 118 13 17 28 35 33 40 51 62 143
220 158 270 2 6 10 31 18 57 12 39 17 203 6 228 -1 3 -1 16 -1 30 2 32 -15 80
-29 80 -5 0 -10 -6 -10 -13z"/>
<path d="M1494 5150 c15 -17 46 -106 57 -165 4 -22 10 -51 13 -65 6 -25 11
-54 21 -125 3 -22 8 -51 11 -65 3 -14 7 -38 10 -55 7 -40 33 -146 41 -165 3
-8 7 -20 9 -27 6 -30 83 -141 118 -172 10 -9 28 -25 40 -36 53 -51 119 -86
141 -75 3 1 8 3 13 5 29 8 60 26 64 37 3 7 -7 42 -22 78 -31 72 -43 102 -44
112 -1 3 -4 10 -8 14 -5 4 -8 17 -8 29 0 11 -5 26 -12 33 -7 7 -8 12 -4 12 5
0 3 7 -4 15 -7 8 -10 15 -7 15 3 0 -1 16 -9 35 -8 19 -14 36 -13 37 3 4 -10
49 -21 73 -16 38 -24 60 -25 70 -3 23 -61 134 -96 185 -41 59 -121 140 -138
140 -6 0 -11 7 -11 15 0 8 -3 14 -7 13 -12 -3 -57 23 -66 38 -4 8 -19 13 -32
12 -21 -2 -22 -4 -11 -18z"/>
<path d="M2792 5078 c-1 -18 -4 -44 -8 -58 -3 -14 -7 -33 -7 -42 -1 -10 -4
-18 -7 -18 -3 0 -5 -15 -5 -32 0 -18 -3 -41 -8 -51 -4 -9 -10 -36 -12 -58 -2
-23 -7 -50 -10 -60 -3 -10 -6 -53 -5 -96 0 -100 2 -113 11 -113 4 0 5 -9 2
-20 -3 -11 0 -20 6 -20 6 0 10 -3 9 -7 -4 -19 16 -65 34 -77 33 -23 54 -9 76
52 37 105 44 133 46 185 1 29 5 58 10 65 4 6 3 12 -1 12 -5 0 -9 23 -9 50 1
28 -1 50 -4 50 -3 0 -6 8 -6 18 -2 44 -32 142 -47 153 -5 3 -8 10 -8 15 1 18
-34 83 -45 84 -6 0 -11 -15 -12 -32z"/>
<path d="M1907 4932 c-6 -10 -1 -39 20 -102 9 -30 16 -59 15 -63 -1 -4 2 -16
7 -26 6 -10 12 -29 15 -42 3 -13 10 -42 16 -64 6 -22 12 -47 12 -55 1 -8 9
-26 18 -40 10 -14 21 -35 24 -47 4 -13 12 -23 17 -23 6 0 8 -4 5 -8 -3 -5 8
-23 24 -40 16 -18 26 -32 23 -32 -11 0 30 -34 69 -59 48 -29 75 -21 83 22 10
57 12 96 7 102 -4 3 -8 17 -10 31 -3 27 -61 165 -73 174 -3 3 -8 10 -10 17
-10 30 -191 223 -209 223 -5 0 -10 3 -10 8 0 11 -38 33 -43 24z"/>
<path d="M3650 4808 c0 -8 -7 -21 -15 -28 -9 -7 -13 -15 -10 -18 3 -3 0 -11
-5 -17 -9 -10 -121 -231 -125 -245 -3 -12 -30 -65 -35 -70 -11 -11 -46 -96
-44 -107 1 -7 2 -17 3 -21 5 -34 82 -75 97 -51 3 5 9 7 14 4 9 -6 50 46 50 64
0 6 4 11 8 11 7 0 46 79 52 105 1 6 6 17 11 26 9 17 21 72 23 102 0 9 3 17 6
17 3 0 5 27 5 60 0 33 -3 60 -8 60 -5 0 -4 6 2 13 6 8 8 17 4 21 -4 3 -8 21
-9 38 -3 32 -24 65 -24 36z"/>
<path d="M4473 4751 c-30 -28 -160 -100 -168 -93 -3 4 -10 1 -14 -6 -4 -7 -21
-15 -37 -18 -16 -3 -31 -8 -34 -12 -5 -7 -13 -9 -50 -17 -8 -2 -17 -4 -20 -5
-3 -1 -8 -2 -12 -1 -5 0 -8 -3 -8 -7 0 -5 -19 -15 -42 -22 -88 -28 -196 -95
-251 -154 -29 -32 -66 -95 -72 -125 -2 -9 -12 -41 -24 -71 -34 -92 -34 -107 1
-138 17 -15 34 -26 39 -25 5 2 9 -1 9 -6 0 -24 56 13 141 92 11 9 21 17 24 16
3 0 28 14 55 30 28 17 51 30 53 30 1 0 34 18 74 40 40 23 77 41 83 41 5 0 10
5 10 10 0 6 5 10 10 10 18 0 110 66 103 73 -3 4 0 7 8 7 8 0 25 14 39 31 14
17 32 38 40 47 27 30 69 122 64 137 -4 8 -2 15 4 15 5 0 10 12 10 28 0 39 8
81 15 89 28 27 -21 31 -50 4z"/>
<path d="M710 4544 c0 -5 41 -65 50 -74 24 -22 164 -283 172 -320 2 -8 6 -17
9 -20 3 -3 13 -24 22 -48 18 -44 25 -56 65 -98 12 -14 22 -29 22 -34 0 -6 7
-10 15 -10 8 0 15 -4 15 -9 0 -5 16 -19 35 -31 20 -12 41 -27 48 -34 14 -14
48 -30 60 -28 4 1 7 -3 7 -9 0 -5 4 -8 9 -5 5 3 12 -1 15 -9 3 -8 9 -14 13
-13 14 3 63 -14 63 -21 0 -4 6 -8 13 -9 26 -2 87 -29 80 -36 -4 -3 11 1 33 9
69 28 108 96 64 110 -37 12 -140 105 -186 168 -25 34 -51 69 -57 77 -7 8 -13
18 -15 23 -1 4 -8 17 -15 30 -61 100 -83 133 -92 139 -5 4 -7 8 -3 8 8 0 -21
38 -53 69 -77 78 -233 150 -376 177 -7 1 -13 0 -13 -2z"/>
<path d="M1145 4480 c-3 -5 -1 -10 6 -10 7 0 9 -3 6 -6 -4 -4 1 -19 11 -33 43
-66 132 -222 132 -232 0 -5 3 -9 8 -9 4 0 15 -15 25 -32 17 -32 144 -127 173
-129 21 -2 25 -4 66 -21 77 -34 141 -28 133 12 -6 31 -74 152 -96 171 -10 9
-19 21 -19 27 0 27 -212 192 -247 192 -7 0 -13 5 -13 11 0 5 -4 7 -10 4 -5 -3
-10 -1 -10 5 0 6 -4 8 -10 5 -5 -3 -10 -1 -10 4 0 6 -6 11 -14 11 -8 0 -27 5
-43 12 -15 6 -33 10 -40 9 -6 -1 -14 3 -18 9 -8 13 -22 13 -30 0z"/>
<path d="M4479 4441 c-22 -22 -99 -89 -99 -86 0 2 -17 -14 -38 -34 -69 -66
-144 -125 -216 -172 -39 -26 -85 -61 -103 -78 -18 -17 -36 -31 -40 -31 -5 0
-13 -8 -18 -18 -40 -74 -39 -71 -20 -92 10 -11 15 -20 11 -20 -4 0 2 -10 14
-22 11 -12 20 -25 20 -30 0 -23 109 14 153 52 10 8 20 14 22 13 3 -2 13 5 23
15 10 9 35 31 56 47 88 70 133 121 154 175 38 100 44 119 42 126 -1 4 2 10 7
13 7 5 28 55 37 86 3 12 17 47 23 57 8 15 -13 14 -28 -1z"/>
<path d="M2597 4243 c-3 -5 -22 -10 -42 -11 -21 -2 -67 -10 -104 -19 -36 -8
-75 -16 -86 -18 -11 -1 -21 -4 -22 -5 -2 -1 -6 -3 -10 -5 -19 -5 -69 -26 -85
-35 -10 -6 -25 -10 -33 -10 -8 0 -15 -4 -15 -8 0 -5 -6 -9 -13 -9 -19 0 -143
-61 -157 -78 -7 -8 -16 -12 -21 -9 -5 3 -9 0 -9 -5 0 -6 -6 -11 -14 -11 -8 0
-16 -3 -18 -7 -1 -5 -21 -21 -43 -38 -57 -42 -60 -45 -118 -101 -78 -77 -113
-116 -136 -155 -11 -18 -21 -29 -21 -24 0 6 -6 0 -13 -11 -6 -12 -32 -55 -56
-95 -25 -41 -44 -76 -42 -78 1 -2 -1 -7 -6 -10 -8 -5 -36 -63 -34 -69 1 -1 -8
-19 -19 -39 -11 -21 -20 -45 -20 -54 0 -8 -3 -19 -7 -23 -5 -4 -8 -11 -9 -14
0 -4 -5 -25 -12 -47 -16 -56 -22 -91 -29 -155 -10 -96 -3 -320 11 -367 3 -10
8 -34 11 -53 8 -50 31 -134 53 -200 3 -8 6 -19 7 -25 2 -5 17 -40 34 -78 17
-37 31 -69 31 -71 0 -10 85 -152 94 -158 6 -4 7 -8 3 -8 -4 0 4 -12 18 -27 14
-15 25 -31 25 -35 0 -5 18 -27 40 -49 22 -23 40 -45 40 -50 0 -5 4 -9 8 -9 4
0 29 -20 55 -45 26 -24 47 -41 47 -38 0 3 8 -3 17 -14 20 -22 180 -133 193
-133 4 0 13 -7 20 -15 7 -8 16 -12 21 -9 5 3 9 0 9 -6 0 -6 5 -8 10 -5 6 3 10
3 10 -2 0 -4 15 -14 33 -22 17 -8 50 -22 72 -32 22 -10 47 -19 55 -21 8 -2 17
-5 20 -8 7 -7 101 -42 120 -44 8 -1 35 -8 60 -16 25 -7 54 -14 65 -16 11 -1
20 -3 20 -4 0 -8 61 -11 170 -10 176 3 205 4 205 10 0 3 10 5 23 6 53 1 136
14 180 27 26 8 47 14 47 12 0 -7 164 52 225 79 32 15 72 37 87 48 15 10 28 17
28 14 0 -3 9 2 19 12 37 33 55 47 66 52 33 14 195 164 195 180 0 5 6 10 14 10
8 0 18 9 21 20 3 11 10 20 15 20 5 0 12 9 15 21 4 11 9 18 12 15 3 -3 22 20
42 52 19 31 39 59 43 60 4 2 8 8 8 13 0 5 11 27 24 48 14 21 22 42 19 45 -4 3
-2 6 4 6 5 0 16 18 23 40 7 22 17 40 22 40 4 0 7 3 6 8 -2 13 26 102 33 102 4
0 6 8 4 18 -1 9 1 24 6 33 4 9 11 29 14 45 2 16 7 40 10 54 3 14 8 39 11 55 8
43 10 295 3 295 -4 0 -6 10 -5 23 1 12 -1 36 -6 52 -4 17 -10 44 -12 60 -11
58 -14 71 -40 150 -36 106 -117 272 -179 365 -28 41 -53 77 -56 80 -3 3 -18
21 -32 40 -36 48 -146 160 -157 160 -5 0 -19 11 -32 25 -13 14 -29 25 -36 25
-7 0 -14 3 -16 8 -5 11 -66 52 -78 52 -5 0 -10 5 -10 10 0 6 -5 10 -11 10 -6
0 -25 10 -42 22 -18 13 -33 22 -34 21 -2 -2 -30 10 -62 26 -33 16 -62 26 -65
23 -4 -3 -6 0 -6 6 0 7 -3 11 -7 10 -11 -2 -156 43 -169 53 -6 5 -14 6 -17 2
-4 -3 -12 -1 -19 4 -7 6 -23 9 -35 8 -13 -1 -23 1 -23 5 0 4 -6 7 -12 7 -7 1
-33 4 -58 8 -25 3 -70 8 -100 10 -30 2 -55 5 -55 6 0 5 -164 4 -181 -2 -12 -4
-26 -3 -32 3 -5 5 -12 6 -15 1z m-125 -102 c32 17 278 -4 278 -24 0 -6 3 -8 6
-4 6 5 29 -2 130 -42 47 -18 52 -19 85 -3 19 9 43 25 54 35 11 10 29 20 41 23
29 7 81 -20 90 -48 10 -30 11 -97 2 -111 -8 -13 -77 -19 -93 -8 -16 11 -56 5
-66 -10 -5 -8 -9 -11 -9 -6 0 13 -77 -43 -89 -66 -7 -13 -11 -43 -9 -68 2 -34
0 -44 -12 -44 -19 1 -112 46 -122 60 -4 5 -8 6 -8 1 0 -4 -11 -1 -24 7 -22 15
-25 14 -46 -5 -12 -11 -26 -34 -32 -49 -5 -16 -14 -29 -20 -29 -5 0 -6 -4 -3
-10 3 -5 2 -10 -2 -10 -5 0 -14 -9 -20 -20 -11 -16 -10 -22 8 -39 20 -18 36
-20 80 -6 10 4 26 2 34 -3 15 -8 15 -10 1 -21 -9 -8 -16 -20 -16 -27 0 -8 -4
-14 -10 -14 -5 0 -12 -11 -16 -25 -3 -14 -10 -22 -15 -19 -5 3 -9 0 -9 -6 0
-15 -43 -80 -54 -80 -5 0 -21 13 -35 29 -18 20 -31 27 -40 22 -18 -11 -68 15
-76 39 -8 24 6 22 -150 25 -71 1 -131 3 -132 4 -2 0 7 19 18 41 15 28 19 48
14 70 -7 30 -8 31 -48 26 -23 -3 -44 -11 -45 -16 -2 -6 -7 -8 -12 -5 -12 7
-60 -53 -60 -75 0 -18 -31 -33 -62 -30 -10 1 -18 -2 -19 -7 0 -4 -2 -15 -4
-23 -2 -8 -5 -25 -7 -37 -2 -11 -9 -27 -14 -35 -9 -10 -12 -84 -5 -119 0 -3
20 -12 44 -19 44 -15 81 -46 71 -61 -3 -5 0 -9 5 -9 6 0 10 -3 9 -7 -3 -14 14
-63 22 -63 4 0 11 -10 15 -22 4 -13 8 -25 10 -28 49 -109 56 -148 38 -218 -8
-29 -11 -57 -8 -61 3 -5 7 -28 10 -51 3 -24 7 -46 9 -49 2 -3 -2 -22 -10 -41
-9 -19 -14 -37 -14 -39 1 -2 -3 -7 -8 -10 -6 -4 -3 -20 8 -44 10 -20 16 -37
14 -37 -3 0 2 -13 11 -29 8 -16 23 -51 34 -78 l19 -49 -26 -30 c-47 -51 -57
-56 -86 -43 -14 7 -26 16 -26 21 0 5 -25 6 -57 2 -32 -4 -69 -8 -83 -9 -14 -2
-25 -4 -25 -5 0 -1 -14 -3 -32 -6 -18 -2 -52 -8 -75 -14 -24 -6 -49 -12 -56
-13 -7 -2 -18 -9 -24 -15 -7 -7 -18 -12 -25 -12 -7 0 -13 -4 -13 -9 0 -5 -10
-11 -21 -14 -24 -6 -68 20 -69 41 0 6 -4 12 -10 12 -5 0 -10 6 -10 13 0 6 -9
30 -19 52 -21 43 -31 68 -39 100 -7 30 -6 164 2 210 14 84 17 102 21 183 2 46
11 99 20 117 15 36 23 53 70 167 26 62 80 128 105 128 5 0 10 5 10 12 0 6 3 8
7 5 3 -4 11 -3 17 2 7 6 24 12 38 15 58 10 65 20 72 103 5 54 22 127 54 233
14 47 27 87 27 90 12 44 54 100 74 100 9 0 37 70 32 79 -2 4 75 43 89 46 3 0
34 15 70 32 89 42 147 63 154 56 3 -4 6 -1 6 5 0 6 6 9 14 6 8 -3 17 0 21 5 3
6 11 9 16 6 5 -4 9 0 10 7 0 10 2 10 6 1 3 -10 10 -10 25 -2z m1118 -273 c0
-5 5 -8 11 -8 28 0 235 -190 222 -204 -3 -3 -2 -6 4 -6 10 0 83 -100 83 -114
0 -4 9 -16 20 -28 11 -12 20 -28 20 -35 0 -7 5 -13 10 -13 6 0 10 -5 10 -11 0
-6 9 -23 20 -39 11 -15 17 -30 13 -34 -3 -3 -1 -6 5 -6 7 0 11 -3 10 -7 0 -5
1 -15 5 -23 31 -81 56 -172 64 -232 3 -21 8 -38 12 -38 4 0 6 -15 6 -32 0 -18
2 -37 4 -43 3 -5 6 -37 6 -71 1 -33 5 -66 9 -72 4 -7 2 -12 -4 -12 -8 0 -8 -6
0 -20 8 -15 8 -20 -2 -21 -10 0 -10 -2 -1 -5 9 -4 9 -13 3 -30 -7 -18 -7 -23
2 -18 6 4 8 3 5 -3 -4 -6 -9 -28 -12 -49 -3 -22 -8 -56 -11 -76 -3 -21 -6 -40
-5 -43 0 -2 -6 -23 -14 -45 -8 -22 -14 -44 -15 -48 -1 -16 -23 -78 -33 -89 -5
-7 -6 -13 -3 -13 4 0 1 -6 -6 -14 -15 -16 -38 -3 -38 21 0 8 -12 37 -27 64
-27 48 -45 59 -108 64 -37 4 -85 -15 -86 -33 -3 -83 -6 -91 -42 -126 -20 -19
-37 -33 -37 -31 0 3 -19 -7 -42 -21 -79 -50 -141 -42 -152 21 -4 20 -18 56
-31 80 -13 25 -22 45 -19 45 2 0 -5 9 -16 20 -11 11 -20 27 -20 35 0 8 -4 15
-9 15 -5 0 -14 13 -19 29 -11 31 -46 71 -61 71 -5 0 -17 -7 -26 -16 -14 -15
-14 -19 7 -52 12 -21 27 -40 32 -44 6 -4 8 -8 4 -8 -3 0 7 -27 23 -60 16 -33
29 -64 29 -70 0 -17 55 -99 66 -100 7 0 14 -7 18 -15 3 -8 23 -23 46 -32 43
-19 47 -26 28 -43 -57 -48 -79 -65 -120 -91 -27 -17 -48 -35 -48 -41 0 -5 -4
-6 -10 -3 -5 3 -10 1 -10 -6 0 -7 -3 -10 -6 -7 -9 10 -48 -35 -77 -88 -14 -28
-24 -54 -20 -58 3 -3 2 -6 -4 -6 -6 0 -13 -11 -17 -24 -3 -13 -25 -44 -48 -69
-59 -62 -88 -97 -81 -97 10 0 -62 -67 -87 -80 -28 -15 -88 -23 -176 -23 -97 0
-97 0 -100 149 -1 71 -5 152 -9 179 -13 84 -8 325 6 325 3 0 6 7 6 15 0 8 -4
15 -8 15 -4 0 -10 11 -13 24 -13 53 -118 111 -212 118 -12 1 -40 58 -47 93 -2
11 -7 27 -10 35 -14 34 -15 69 -1 81 7 6 12 15 9 19 -3 5 -1 11 5 15 6 4 8 10
5 15 -5 8 39 57 81 90 19 15 80 43 99 46 6 0 15 2 21 2 6 1 21 11 34 22 13 11
29 20 37 20 7 0 13 5 13 10 0 6 5 10 10 10 6 0 24 9 39 21 23 17 33 19 49 10
13 -7 23 -7 27 -2 5 9 -26 75 -45 94 -14 15 58 126 72 111 3 -3 17 -2 32 2 21
5 24 9 15 25 -5 10 -8 19 -5 19 3 0 1 13 -4 29 -7 24 -5 29 6 24 8 -3 14 0 14
7 0 6 4 9 9 5 13 -7 62 16 55 26 -3 5 -1 9 5 9 5 0 8 8 6 18 -3 20 14 44 26
36 5 -3 9 0 9 6 0 6 12 10 28 8 30 -3 35 -21 15 -54 -7 -11 -10 -24 -6 -27 3
-4 0 -7 -7 -7 -10 0 -9 -4 3 -18 15 -16 12 -17 -59 -17 -42 0 -78 -4 -81 -9
-3 -5 -1 -6 5 -2 7 4 12 1 12 -6 0 -10 2 -10 9 0 10 16 21 18 30 4 3 -5 20
-13 37 -19 34 -12 70 2 117 45 15 14 27 21 27 15 0 -15 35 -23 51 -12 11 7 9
10 -8 15 -13 4 -23 9 -23 13 0 3 26 30 57 58 53 48 93 67 93 44 0 -12 54 -19
79 -9 14 5 32 30 47 65 14 32 30 67 35 78 19 43 36 131 33 179 -3 60 -23 128
-35 120 -5 -3 -9 -1 -9 4 0 9 -26 20 -42 18 -23 -3 -49 69 -28 76 20 6 130 3
130 -4z m-480 -196 c11 -18 20 -35 20 -38 0 -3 -30 -34 -66 -69 -55 -53 -70
-62 -87 -56 -12 5 -35 4 -51 0 -16 -5 -33 -6 -38 -3 -5 3 -14 1 -21 -4 -23
-18 -55 -20 -61 -5 -8 19 -1 29 42 67 20 17 50 46 69 63 18 18 33 29 33 25 0
-4 4 -1 8 6 10 15 99 51 120 48 7 -1 22 -17 32 -34z m-120 -355 c0 -5 6 -7 13
-4 6 2 21 1 31 -3 17 -5 11 -12 -36 -43 -30 -20 -57 -37 -59 -37 -12 0 -7 56
5 75 14 22 46 30 46 12z"/>
<path d="M3297 3245 c-9 -7 -15 -14 -12 -16 2 -3 -9 -20 -25 -39 -27 -31 -28
-36 -14 -47 13 -9 26 -8 63 5 48 18 47 17 42 83 -1 22 -33 30 -54 14z"/>
<path d="M2983 2936 c-18 -6 -33 -13 -33 -17 0 -3 -11 -5 -25 -4 -14 2 -25 -1
-25 -6 0 -9 13 -12 42 -10 17 2 87 -83 88 -105 0 -10 14 -20 40 -29 3 -1 12
-4 20 -8 39 -15 116 -42 123 -43 4 -1 9 -3 12 -4 3 -1 8 -3 13 -4 4 -1 13 -5
20 -10 19 -11 45 16 36 37 -3 9 -10 15 -14 12 -4 -3 -11 2 -14 11 -4 10 -2 13
6 8 7 -5 8 -3 4 5 -5 7 -15 10 -23 7 -8 -3 -24 0 -36 6 -12 7 -44 12 -71 13
l-49 0 -12 58 c-6 32 -11 59 -11 61 1 1 -6 9 -14 17 -18 17 -34 18 -77 5z"/>
<path d="M3367 2824 c-4 -4 3 -15 15 -26 16 -13 25 -15 32 -8 8 8 5 15 -8 26
-22 16 -30 17 -39 8z"/>
<path d="M3610 2521 c0 -5 11 -11 25 -13 28 -6 34 6 9 16 -22 8 -34 7 -34 -3z"/>
<path d="M3705 2499 c-4 -5 -4 -13 -1 -16 3 -4 6 0 6 8 0 11 2 11 10 -1 6 -9
10 -10 10 -3 0 17 -17 25 -25 12z"/>
<path d="M5010 4034 c0 -6 -10 -10 -22 -11 -13 -1 -34 -4 -48 -7 -42 -9 -84
-17 -110 -22 -14 -2 -32 -6 -40 -7 -27 -7 -85 -17 -117 -21 -17 -2 -36 -7 -42
-11 -6 -3 -25 -8 -43 -10 -47 -6 -83 -14 -115 -26 -16 -6 -28 -10 -28 -9 0 1
-12 -1 -27 -5 -16 -4 -28 -11 -28 -16 0 -5 -3 -8 -7 -7 -5 2 -25 -7 -46 -19
-20 -12 -38 -22 -40 -21 -4 3 -48 -35 -97 -84 -59 -61 -74 -102 -50 -149 35
-73 43 -80 80 -77 19 1 50 8 68 15 18 8 38 13 45 12 7 -1 19 1 27 4 8 3 53 18
100 32 47 15 92 29 100 32 8 4 18 5 23 5 4 -1 7 2 7 6 0 5 6 9 13 9 19 0 106
43 167 82 30 20 83 64 117 99 73 74 142 187 124 205 -6 6 -11 7 -11 1z"/>
<path d="M666 3783 c-2 -3 -10 -6 -18 -7 -28 -6 -53 -21 -56 -34 -1 -8 2 -11
8 -7 5 3 10 -1 10 -9 0 -9 5 -16 10 -16 6 0 33 -18 61 -40 28 -22 55 -40 60
-40 6 0 7 -4 4 -10 -3 -5 1 -10 9 -10 8 0 21 -6 28 -13 40 -39 211 -131 291
-156 21 -7 51 -10 69 -5 18 3 46 8 63 10 32 4 70 11 70 14 0 1 13 3 28 4 37 2
49 23 29 47 -9 11 -22 19 -28 19 -7 0 -14 4 -16 8 -1 5 -34 31 -73 60 -38 28
-75 56 -82 62 -7 5 -14 10 -17 10 -3 0 -27 13 -53 28 -62 37 -156 74 -191 77
-16 1 -33 4 -38 7 -11 6 -162 7 -168 1z"/>
<path d="M357 3644 c-1 -1 -20 -4 -42 -7 -74 -11 -110 -20 -117 -30 -6 -10 20
-36 52 -51 26 -12 57 -31 74 -45 9 -7 16 -10 16 -7 0 4 6 2 13 -4 6 -5 28 -24
47 -40 19 -16 40 -30 47 -30 6 0 13 -4 15 -8 2 -5 26 -23 53 -42 28 -19 59
-42 69 -52 11 -10 26 -18 33 -18 7 0 13 -4 13 -8 0 -5 12 -15 28 -23 15 -8 29
-17 32 -20 10 -13 177 -88 237 -107 46 -16 70 -18 100 -12 21 5 52 11 68 14
17 3 41 8 55 11 14 4 34 8 45 9 34 6 55 18 56 32 5 48 0 76 -11 69 -5 -3 -16
-3 -22 2 -7 4 -16 8 -20 9 -5 1 -9 2 -10 4 -2 1 -10 3 -19 5 -26 5 -144 59
-147 67 -2 4 -11 8 -21 8 -9 0 -27 9 -39 20 -12 11 -25 20 -30 20 -5 0 -19 8
-30 18 -12 9 -43 33 -69 52 -27 19 -55 43 -64 52 -9 10 -21 18 -28 18 -6 0
-11 5 -11 10 0 6 -5 10 -11 10 -6 0 -24 9 -40 21 -16 11 -29 17 -29 13 0 -3
-6 -2 -12 4 -7 6 -16 11 -21 11 -4 0 -17 3 -30 6 -54 11 -97 16 -160 18 -38 1
-69 1 -70 1z"/>
<path d="M4792 3632 c-23 -10 -50 -24 -60 -32 -10 -8 -25 -16 -33 -18 -7 -2
-17 -9 -21 -15 -4 -7 -8 -8 -8 -4 0 5 -12 0 -27 -11 -37 -25 -114 -53 -161
-58 -54 -5 -62 -8 -117 -37 -91 -48 -90 -47 -83 -150 3 -42 33 -45 151 -15 26
6 47 16 47 20 0 5 4 7 9 4 10 -7 71 23 83 39 4 6 8 7 8 2 0 -10 110 64 110 74
0 5 5 9 10 9 12 0 16 4 71 53 29 25 89 129 89 152 0 9 -25 4 -68 -13z"/>
<path d="M4658 3164 c-3 -3 -33 -7 -66 -9 -33 -2 -80 -9 -104 -16 -24 -6 -47
-12 -53 -13 -5 -2 -27 -10 -47 -19 -32 -13 -38 -21 -39 -46 -2 -97 -1 -116 10
-114 6 2 11 -2 11 -8 0 -5 4 -8 8 -5 5 3 36 -1 70 -8 34 -7 62 -10 62 -7 0 3
5 -1 10 -9 6 -9 10 -10 10 -3 0 8 9 9 33 2 17 -6 48 -12 67 -15 36 -5 59 -9
108 -20 15 -4 36 -6 47 -6 10 1 24 -3 30 -7 11 -9 74 -8 150 3 28 4 53 7 57 7
4 0 26 6 48 14 22 8 40 12 40 9 0 -2 27 9 59 26 56 28 131 92 131 112 0 7 -18
12 -47 11 -7 -1 -13 2 -13 6 0 4 -12 6 -27 6 -16 -1 -32 1 -38 4 -5 3 -21 6
-35 7 -14 1 -52 13 -85 25 -33 13 -63 22 -67 21 -5 -1 -8 2 -8 7 0 5 -8 8 -17
6 -10 -1 -22 0 -28 4 -17 9 -69 17 -180 26 -44 4 -83 9 -86 11 -3 2 -9 1 -11
-2z"/>
<path d="M766 2972 c-4 -3 -14 -7 -24 -8 -9 -1 -35 -5 -57 -7 -22 -3 -53 -10
-68 -16 -15 -6 -27 -8 -27 -5 0 2 -13 -2 -29 -10 -16 -9 -31 -12 -35 -9 -3 4
-6 2 -6 -4 0 -6 -11 -14 -25 -17 -14 -4 -25 -10 -25 -15 0 -8 58 -27 110 -35
14 -3 26 -5 28 -7 2 -2 2 -2 57 -14 22 -4 45 -9 50 -11 6 -2 20 -5 33 -8 12
-3 32 -9 45 -12 34 -8 137 -12 137 -5 0 4 12 7 28 6 52 -1 212 66 246 104 21
23 16 34 -17 37 -12 1 -42 5 -67 9 -58 9 -102 13 -225 20 -55 3 -105 7 -112
10 -6 2 -14 1 -17 -3z"/>
<path d="M4567 2814 c-1 -1 -18 -4 -37 -7 -63 -10 -93 -18 -114 -29 -12 -7
-27 -13 -35 -14 -22 -4 -30 -17 -35 -56 -5 -39 2 -44 89 -62 6 -1 15 -5 22 -9
6 -4 15 -3 18 3 5 7 11 8 19 1 7 -6 17 -6 26 -1 8 5 21 5 32 -1 10 -5 18 -6
18 -1 0 4 10 8 23 8 12 0 45 4 72 8 28 4 64 9 80 11 17 2 42 8 58 14 15 6 27
8 27 5 0 -4 6 -1 13 5 8 6 22 12 33 14 41 6 134 50 134 63 0 16 1 16 -60 20
-25 1 -67 5 -95 8 -106 12 -283 24 -288 20z"/>
<path d="M384 2751 c-2 -3 -15 -6 -27 -8 -48 -8 -97 -24 -111 -39 -8 -8 -18
-14 -21 -14 -10 2 -75 -57 -75 -68 0 -10 56 -28 73 -24 4 1 7 -3 7 -10 0 -6 2
-9 6 -6 3 3 26 -1 52 -9 130 -41 178 -55 190 -56 6 0 12 -5 12 -10 0 -6 3 -8
6 -4 3 3 27 -1 52 -9 26 -8 54 -17 62 -19 8 -2 36 -10 61 -18 51 -16 218 -13
269 5 8 3 51 13 95 23 44 9 96 27 115 38 42 26 89 75 86 91 -2 6 -8 30 -15 54
-11 39 -15 43 -39 41 -15 -2 -33 -7 -40 -12 -17 -13 -292 -10 -292 3 0 3 -10
5 -22 6 -28 0 -107 13 -188 30 -63 13 -247 24 -256 15z"/>
<path d="M4457 2464 c-1 -1 -30 -5 -65 -8 -66 -7 -115 -24 -107 -37 3 -4 -2
-14 -10 -22 -15 -15 -11 -47 6 -47 5 0 38 -13 74 -30 36 -16 70 -30 75 -30 6
0 10 -4 10 -9 0 -5 9 -13 21 -16 11 -4 40 -19 62 -34 23 -15 69 -45 102 -67
33 -21 63 -43 67 -49 5 -6 8 -6 8 0 0 6 5 2 11 -7 5 -10 17 -18 24 -18 8 0 15
-3 15 -8 0 -4 15 -13 33 -20 17 -7 39 -17 47 -21 23 -12 132 -44 155 -46 11
-1 24 1 30 4 5 2 21 6 35 7 96 11 151 21 162 32 10 10 -108 142 -128 142 -8 0
-14 3 -14 8 0 4 -27 27 -59 51 -33 23 -73 57 -89 74 -16 18 -38 39 -48 47 -35
28 -122 70 -148 72 -14 1 -26 5 -26 9 0 11 -231 33 -243 23z"/>
<path d="M4236 2212 c-4 -4 -12 -8 -17 -8 -5 -1 -13 -2 -17 -3 -19 -3 -33 -54
-22 -80 9 -24 71 -61 100 -61 6 0 10 -5 10 -12 0 -6 3 -8 7 -5 3 4 15 0 25
-10 10 -9 18 -13 18 -9 0 3 40 -14 89 -38 49 -25 91 -42 95 -39 3 4 6 1 6 -5
0 -21 69 -33 179 -31 118 1 147 12 113 42 -9 8 -23 17 -31 19 -15 3 -41 21
-67 46 -8 7 -14 11 -14 7 0 -3 -24 12 -54 34 -29 22 -56 37 -60 34 -3 -4 -6
-1 -6 5 0 7 -5 12 -10 12 -6 0 -29 12 -53 27 -23 14 -42 25 -42 24 0 -1 -13 3
-30 9 -74 28 -103 36 -150 39 -27 1 -53 5 -56 7 -3 2 -9 0 -13 -4z"/>
<path d="M4018 1916 c-8 -6 -22 -22 -31 -36 -16 -25 -16 -26 79 -120 99 -99
194 -229 194 -265 0 -23 44 -95 85 -139 14 -15 25 -31 25 -37 0 -5 4 -9 10 -9
5 0 27 -18 50 -41 22 -22 40 -37 40 -32 0 4 6 1 13 -7 16 -19 57 -44 127 -76
30 -14 64 -29 75 -34 11 -5 32 -12 47 -14 15 -3 32 -7 38 -11 5 -3 19 -8 29
-10 15 -3 18 1 14 13 -3 9 -13 23 -21 30 -9 6 -13 12 -9 12 3 0 -6 21 -21 47
-16 27 -43 80 -61 118 -73 155 -116 240 -123 243 -5 2 -8 8 -8 13 0 5 -20 40
-44 77 -57 86 -160 192 -186 192 -6 0 -10 5 -10 10 0 6 -7 10 -15 10 -8 0 -15
5 -15 10 0 6 -9 10 -19 10 -11 0 -21 4 -23 10 -1 5 -22 11 -45 13 -23 2 -45 6
-49 9 -3 4 -12 4 -19 2 -7 -3 -16 0 -20 5 -3 6 -11 9 -16 6 -5 -4 -15 -3 -21
2 -19 11 -53 11 -70 -1z"/>
<path d="M3805 1696 c-28 -40 -15 -75 44 -116 11 -8 21 -18 21 -23 0 -12 52
-85 87 -122 35 -38 157 -135 170 -135 5 0 19 -9 31 -21 12 -11 27 -17 32 -14
6 3 10 2 10 -4 0 -6 11 -13 25 -17 14 -3 25 -10 25 -15 0 -5 3 -8 8 -7 8 1 39
-9 64 -22 31 -17 26 14 -13 79 -22 34 -39 67 -39 72 0 5 -5 9 -10 9 -6 0 -9 3
-8 8 4 12 -97 155 -146 204 -25 26 -46 45 -46 42 0 -2 -10 5 -22 17 -22 20
-93 58 -120 63 -7 2 -20 6 -28 9 -43 16 -71 14 -85 -7z"/>
<path d="M433 1000 c-2 -3 -8 -5 -11 -6 -84 -10 -175 -72 -252 -171 -50 -63
-61 -281 -20 -368 14 -27 32 -59 42 -69 10 -11 18 -22 18 -26 0 -9 104 -70
126 -74 10 -2 30 -9 44 -14 14 -5 72 -8 130 -6 126 5 130 5 130 15 0 5 6 6 14
3 7 -3 29 1 49 9 l35 15 0 159 c0 87 -2 165 -4 173 -3 14 -42 17 -134 11 -13
-1 -15 -21 -14 -120 1 -117 1 -119 -23 -130 -15 -7 -22 -7 -18 -1 4 6 -2 7
-17 1 -13 -4 -32 -5 -43 -1 -11 4 -25 5 -31 3 -14 -5 -75 21 -99 44 -26 23
-58 73 -48 73 5 0 2 4 -5 8 -7 5 -14 36 -16 78 -10 212 148 313 384 244 47
-14 52 -13 49 8 -1 9 0 19 1 22 3 8 9 42 12 69 3 25 -5 30 -87 47 -37 8 -205
11 -212 4z"/>
<path d="M3097 1004 c-3 -3 -35 -6 -71 -7 -36 0 -67 -3 -67 -6 -1 -3 -2 -165
-3 -359 -2 -403 -13 -363 94 -359 l55 2 0 121 0 120 25 1 c26 1 94 10 120 16
37 8 92 42 121 74 47 54 60 92 60 173 0 65 -30 129 -76 164 -34 26 -117 54
-152 51 -13 -1 -23 2 -23 6 0 5 -10 5 -22 0 -35 -13 -40 -13 -48 -2 -3 6 -9 9
-13 5z m103 -134 c3 -1 9 -2 14 -1 11 2 56 -46 57 -62 6 -49 4 -75 -4 -91 -12
-24 -49 -60 -64 -63 -49 -10 -84 -10 -90 0 -10 16 -11 211 -1 218 8 5 76 4 88
-1z"/>
<path d="M4463 982 c-58 -16 -56 -13 -54 -108 1 -68 -4 -74 -58 -69 -24 2 -31
-1 -27 -11 3 -7 1 -16 -5 -20 -7 -4 -7 -10 0 -18 7 -9 7 -16 -1 -24 -9 -9 -9
-12 0 -12 6 0 9 -7 6 -15 -5 -12 3 -15 38 -15 l45 0 1 -137 c1 -207 1 -209 37
-251 l33 -37 95 0 c53 1 99 4 103 8 10 10 11 50 2 70 -6 11 -5 17 2 17 7 0 5
7 -4 15 -8 9 -26 15 -38 14 -76 -7 -84 10 -83 176 l0 120 60 5 c61 5 68 10 66
55 -2 57 -5 60 -67 60 l-59 1 1 89 c0 113 -1 114 -93 87z"/>
<path d="M1030 794 c-25 -13 -40 -23 -35 -24 6 0 2 -5 -8 -11 -9 -6 -15 -14
-12 -19 3 -4 -1 -10 -8 -13 -14 -5 -17 20 -4 40 14 22 -18 38 -74 37 -30 -1
-57 -2 -60 -3 -3 0 -5 -119 -5 -263 l1 -263 68 -1 c37 -1 70 3 73 8 4 5 6 68
6 140 -1 195 26 249 122 252 l30 1 2 70 c2 70 1 70 -25 71 -15 1 -47 -9 -71
-22z"/>
<path d="M1336 808 c-22 -4 -53 -17 -71 -28 -30 -19 -91 -80 -89 -90 1 -3 -2
-16 -7 -29 -31 -80 -31 -202 0 -259 6 -11 7 -22 4 -26 -3 -3 -1 -6 5 -6 7 0
12 -7 12 -15 0 -8 3 -15 8 -15 4 0 19 -10 32 -23 41 -38 105 -54 200 -51 111
5 113 5 128 17 6 5 12 6 12 3 0 -4 9 -2 21 4 17 9 19 17 13 48 -3 20 -7 44 -7
53 -1 13 -22 18 -34 9 -2 -2 -7 -4 -13 -5 -5 -1 -11 -3 -12 -5 -3 -1 -31 -6
-83 -14 -37 -5 -100 15 -127 41 -15 15 -26 28 -24 31 2 2 0 17 -4 32 l-8 29
93 -1 c51 0 97 2 103 6 6 3 13 2 16 -2 5 -8 29 -9 61 -2 6 1 12 1 15 0 30 -11
39 -6 44 28 15 108 -31 213 -109 252 -47 23 -124 31 -179 18z m105 -113 c16
-9 29 -21 30 -28 0 -6 2 -22 5 -34 3 -19 -1 -22 -34 -25 -20 -2 -61 -1 -89 0
-44 3 -53 7 -53 23 0 10 5 19 10 19 6 0 10 6 10 14 0 18 36 41 67 44 13 1 37
-5 54 -13z"/>
<path d="M1865 812 c-3 -3 -11 -7 -18 -8 -44 -7 -53 -13 -108 -67 -22 -21 -37
-43 -33 -48 3 -5 1 -9 -3 -9 -35 0 -43 -204 -11 -280 20 -47 80 -115 92 -103
3 4 6 0 6 -7 0 -7 3 -10 7 -7 3 4 13 1 21 -5 16 -14 184 -16 241 -4 61 12 71
23 67 64 -6 58 -15 73 -36 62 -18 -10 -52 -16 -116 -24 -41 -4 -100 16 -126
43 -10 12 -22 37 -25 55 l-5 34 70 0 c38 0 75 2 80 6 6 3 13 2 16 -2 6 -10 48
-8 65 2 5 4 12 2 15 -2 3 -5 22 -6 43 -3 l38 6 0 70 c1 101 -37 170 -118 211
-27 15 -151 26 -162 16z m93 -113 c18 -6 31 -13 29 -16 -3 -2 1 -16 8 -30 21
-39 4 -48 -87 -46 -44 1 -82 4 -84 6 -9 8 17 59 37 76 26 21 54 24 97 10z"/>
<path d="M2458 807 c-20 -5 -48 -19 -62 -32 -15 -13 -26 -21 -26 -18 0 4 -7
-2 -15 -13 -15 -18 -16 -18 -14 11 1 17 1 35 0 40 -1 8 -104 13 -131 6 -4 -1
-5 -480 -1 -518 1 -7 22 -11 59 -11 93 0 87 -12 86 158 0 82 2 150 6 150 3 0
6 9 7 20 2 27 43 77 68 84 81 23 94 -2 94 -179 0 -77 0 -160 1 -185 l0 -46 69
-1 c46 -1 71 2 74 10 2 7 3 77 2 157 -1 80 3 151 8 158 5 6 6 12 1 12 -5 0
-10 24 -10 54 -1 40 -8 63 -28 92 -14 21 -26 35 -26 31 0 -5 -7 -1 -16 7 -8 9
-21 16 -27 17 -62 5 -87 4 -119 -4z"/>
<path d="M3605 815 c-5 -2 -35 -8 -66 -14 -42 -9 -58 -17 -62 -31 -3 -11 -2
-20 1 -20 4 0 7 -16 8 -35 1 -42 7 -50 31 -40 10 5 24 9 32 11 8 1 26 6 40 10
24 6 84 8 96 4 7 -3 23 -7 34 -9 10 -1 19 -24 27 -65 3 -19 -1 -25 -21 -28
-13 -3 -22 -2 -20 2 5 8 -86 -12 -127 -29 -16 -6 -28 -7 -28 -3 0 4 -6 0 -13
-9 -7 -9 -22 -21 -34 -27 -30 -17 -65 -93 -60 -133 6 -49 18 -89 26 -89 4 0
17 -9 29 -20 16 -15 39 -22 80 -25 65 -4 112 12 155 53 19 17 28 22 27 12 -8
-53 -4 -57 68 -57 l69 -1 -3 207 c-3 230 -3 225 -28 264 -30 45 -89 69 -175
72 -42 1 -80 1 -86 0z m141 -318 c11 -11 -16 -74 -42 -98 -14 -13 -27 -23 -30
-22 -2 1 -11 0 -20 -4 -18 -7 -61 14 -68 34 -15 39 18 80 73 90 14 2 27 5 28
6 5 5 53 0 59 -6z"/>
<path d="M4200 807 c0 -5 -4 -6 -9 -2 -12 7 -83 -54 -76 -65 3 -4 -1 -10 -8
-13 -8 -3 -13 3 -13 14 0 11 4 19 8 19 4 0 4 10 -1 22 -7 20 -15 23 -75 23
-37 1 -70 -3 -72 -7 -3 -4 -1 -8 3 -8 5 0 8 -19 6 -42 -4 -50 -4 -41 -1 -138
1 -42 -2 -81 -6 -88 -4 -7 -4 -12 1 -12 4 0 8 -53 8 -117 l0 -118 73 -2 72 -3
1 118 c0 64 3 135 5 157 3 22 5 46 6 53 1 6 5 12 10 12 4 0 8 7 8 15 0 9 11
21 25 27 14 6 25 14 25 18 0 4 16 6 35 3 28 -3 35 0 36 14 0 10 3 43 5 74 l4
56 -35 -1 c-19 -1 -35 -5 -35 -9z"/>
<path d="M4715 802 c-3 -3 69 -201 86 -237 6 -12 11 -27 13 -35 1 -8 7 -24 13
-35 6 -11 12 -24 13 -30 5 -19 9 -31 39 -114 19 -51 28 -88 23 -95 -5 -6 -12
-23 -16 -39 -3 -15 -11 -27 -17 -27 -6 0 -8 -4 -5 -9 18 -28 -85 -61 -125 -40
-10 5 -16 4 -17 -4 -1 -7 -4 -37 -7 -68 l-5 -56 55 -2 c80 -2 129 14 172 58
46 47 66 71 57 71 -3 0 -2 6 4 13 6 6 23 46 40 87 16 41 33 84 37 95 5 11 9
22 10 25 4 19 29 87 34 95 3 6 6 15 7 20 2 6 14 38 27 73 14 34 22 62 19 62
-4 0 -2 4 3 8 6 4 21 39 34 77 13 39 29 76 34 83 16 20 1 26 -74 27 -73 1 -89
-6 -92 -44 -1 -12 -4 -21 -7 -21 -3 0 -6 -10 -7 -22 -1 -11 -8 -25 -15 -29 -7
-5 -10 -9 -6 -9 3 0 -7 -39 -23 -86 -16 -47 -29 -92 -29 -100 0 -9 -4 -12 -10
-9 -5 3 -10 17 -10 30 0 13 -4 34 -9 47 -9 23 -19 51 -22 66 -5 20 -60 166
-64 171 -6 5 -154 8 -160 3z"/>
</g>
</svg>
